<svg width="96" height="96" viewBox="0 0 96 96" fill="none" xmlns="http://www.w3.org/2000/svg">
<path d="M17 50V16H19.5619L19.5253 23.0287L19.1776 30.5953H19.7998L22.1239 22.3611L24.1551 16H26.8085L22.4533 29.2785L27.266 50H24.759L20.8978 32.2273L19.4704 36.1033V50H17Z" fill="url(#paint0_linear_452_5)"/>
<path d="M30.7246 36.4V16H38.9777V18.2255H33.1402V24.9945H38.6117V27.2015H33.1402V34.1745H38.9777V36.4H30.7246Z" fill="url(#paint1_linear_452_5)"/>
<path d="M42.9243 36.4V16H51.1774V18.2255H45.3398V24.9945H50.8114V27.2015H45.3398V34.1745H51.1774V36.4H42.9243Z" fill="url(#paint2_linear_452_5)"/>
<path d="M56.6489 48.7636V16H61.0957C62.7549 16 63.9565 16.3709 64.7007 17.1127C65.4449 17.8545 65.8536 19.0847 65.9268 20.8033C65.9756 22.4476 66 23.9251 66 25.2356C66 26.5462 65.9756 27.8938 65.9268 29.2785C65.8536 30.9847 65.4388 32.2087 64.6824 32.9505C63.9383 33.6924 62.7366 34.0633 61.0774 34.0633H59.0645V48.7636H56.6489ZM59.0645 31.8564H61.0774C61.907 31.8564 62.5048 31.6585 62.8708 31.2629C63.249 30.8673 63.4564 30.2367 63.493 29.3713C63.5296 28.3945 63.554 27.4302 63.5662 26.4782C63.5784 25.5138 63.5784 24.5556 63.5662 23.6036C63.554 22.6393 63.5296 21.6687 63.493 20.692C63.4564 19.8389 63.2551 19.2145 62.8891 18.8189C62.5231 18.4233 61.9253 18.2255 61.0957 18.2255H59.0645V31.8564Z" fill="url(#paint3_linear_452_5)"/>
<path d="M21.9464 81C20.2484 81 19.0241 80.6257 18.2735 79.877C17.5352 79.116 17.1292 77.8703 17.0554 76.1397C17.0431 75.3788 17.0369 74.6853 17.0369 74.0594C17.0369 73.4334 17.0431 72.8075 17.0554 72.1816C17.0677 71.5433 17.0861 70.8438 17.1107 70.0828H19.4547C19.4055 71.1751 19.3809 72.2613 19.3809 73.3414C19.3809 74.4215 19.4055 75.477 19.4547 76.5079C19.4917 77.3425 19.7008 77.9501 20.0823 78.3305C20.4637 78.711 21.0789 78.9013 21.9279 78.9013C22.74 78.9013 23.3245 78.711 23.6813 78.3305C24.0382 77.9501 24.2412 77.3425 24.2904 76.5079C24.3273 75.8206 24.3519 75.207 24.3642 74.6669C24.3765 74.1146 24.3765 73.5562 24.3642 72.9916C24.3519 72.4148 24.3273 71.7397 24.2904 70.9665C24.2658 70.0583 24.1366 69.2973 23.9028 68.6836C23.6813 68.0577 23.2138 67.6527 22.5001 67.4686L20.5806 66.9715C19.6332 66.7383 18.9072 66.3885 18.4027 65.9221C17.8982 65.4435 17.5475 64.8175 17.3507 64.0443C17.1661 63.2711 17.0554 62.3199 17.0185 61.1907C17.0062 60.3929 17 59.5215 17 58.5765C17.0123 57.6314 17.0246 56.7171 17.0369 55.8334C17.0738 54.6919 17.2522 53.7714 17.5722 53.0719C17.8921 52.36 18.4027 51.8445 19.1041 51.5254C19.8177 51.194 20.759 51.0283 21.9279 51.0283C23.5521 51.0283 24.7272 51.4027 25.4532 52.1513C26.1791 52.9 26.5729 54.1396 26.6344 55.8702C26.659 56.5452 26.6652 57.3798 26.6529 58.374C26.6529 59.3558 26.6344 60.3991 26.5975 61.5037H24.235C24.2719 60.4973 24.2904 59.497 24.2904 58.5028C24.3027 57.4964 24.2904 56.4961 24.2535 55.502C24.2289 54.6674 24.0259 54.0599 23.6444 53.6794C23.2753 53.2989 22.6908 53.1087 21.891 53.1087C21.0543 53.1087 20.4576 53.2989 20.1007 53.6794C19.7439 54.0599 19.5409 54.6674 19.4917 55.502C19.4424 56.4348 19.4178 57.3798 19.4178 58.3371C19.4301 59.2822 19.4547 60.2334 19.4917 61.1907C19.5163 62.2831 19.6455 63.1054 19.8792 63.6577C20.113 64.21 20.5991 64.572 21.3373 64.7439L23.1461 65.1857C24.1181 65.4066 24.8564 65.7626 25.3609 66.2535C25.8777 66.7444 26.2345 67.3827 26.4314 68.1682C26.6283 68.9414 26.739 69.8742 26.7636 70.9665C26.7882 71.7274 26.8005 72.3718 26.8005 72.8996C26.8005 73.415 26.7944 73.9182 26.7821 74.4092C26.7821 74.9001 26.7698 75.477 26.7451 76.1397C26.6836 77.8703 26.2837 79.116 25.5455 79.877C24.8072 80.6257 23.6075 81 21.9464 81Z" fill="url(#paint4_linear_452_5)"/>
<path d="M30.9597 80.7423V39.0127H33.396V58.6808H38.1209V39.0127H40.5572V80.7423H38.1209V60.8716H33.396V80.7423H30.9597Z" fill="url(#paint5_linear_452_5)"/>
<path d="M48.229 80.7975C46.5187 80.7975 45.2882 80.4293 44.5377 79.6929C43.7994 78.9442 43.4118 77.7169 43.3749 76.0109C43.338 74.2558 43.3072 72.5375 43.2826 70.856C43.2703 69.1623 43.2642 67.4808 43.2642 65.8116C43.2642 64.1425 43.2703 62.4671 43.2826 60.7857C43.3072 59.1042 43.338 45.1064 43.3749 43.339C43.4118 41.633 43.7994 40.4118 44.5377 39.6754C45.2882 38.9267 46.5187 38.5524 48.229 38.5524C49.9516 38.5524 51.1821 38.9267 51.9204 39.6754C52.6709 40.4118 53.0585 41.633 53.0831 43.339C53.12 45.1064 53.1447 59.1104 53.157 60.8041C53.1816 62.4856 53.1939 64.1609 53.1939 65.8301C53.1939 67.487 53.1816 69.1623 53.157 70.856C53.1447 72.5375 53.12 74.2558 53.0831 76.0109C53.0585 77.7169 52.6709 78.9442 51.9204 79.6929C51.1821 80.4293 49.9516 80.7975 48.229 80.7975ZM48.229 78.6987C49.0903 78.6987 49.7056 78.5269 50.0747 78.1833C50.4438 77.8273 50.6345 77.2259 50.6468 76.3791C50.6961 74.5749 50.7268 72.7891 50.7391 71.0217C50.7637 69.2421 50.776 67.4808 50.776 65.738C50.776 63.9829 50.7637 62.234 50.7391 60.4911C50.7145 58.736 50.6838 44.7136 50.6468 42.9708C50.6345 42.124 50.4377 41.5226 50.0562 41.1666C49.6871 40.8107 49.078 40.6327 48.229 40.6327C47.3923 40.6327 46.7894 40.8107 46.4203 41.1666C46.0511 41.5226 45.8543 42.124 45.8296 42.9708C45.7804 44.7136 45.7435 58.736 45.7189 60.4911C45.6943 62.234 45.682 63.9829 45.682 65.738C45.6943 67.4808 45.7128 69.2421 45.7374 71.0217C45.762 72.7891 45.7927 74.5749 45.8296 76.3791C45.8543 77.2259 46.0511 77.8273 46.4203 78.1833C46.7894 78.5269 47.3923 78.6987 48.229 78.6987Z" fill="url(#paint6_linear_452_5)"/>
<path d="M57.1744 80.7423V51.2861H61.6593C63.3328 51.2861 64.5448 51.6543 65.2953 52.3907C66.0459 53.1271 66.4581 54.3483 66.5319 56.0543C66.5688 57.1466 66.5934 58.1837 66.6057 59.1656C66.6181 60.1352 66.6181 61.0803 66.6057 62.0008C66.5934 62.909 66.5688 63.8172 66.5319 64.7255C66.495 65.916 66.2858 66.8672 65.9044 67.579C65.523 68.2786 64.9323 68.7757 64.1325 69.0702L67.1041 80.7423H64.4832L61.7701 69.4937H59.6107V80.7423H57.1744ZM59.6107 67.2845H61.6409C62.4776 67.2845 63.0805 67.0881 63.4496 66.6953C63.8311 66.3026 64.0403 65.6828 64.0772 64.8359C64.1141 63.8663 64.1387 62.8844 64.151 61.8903C64.1633 60.8839 64.1633 59.8836 64.151 58.8895C64.1387 57.8953 64.1141 56.9134 64.0772 55.9438C64.0403 55.097 63.8372 54.4772 63.4681 54.0844C63.099 53.6917 62.4961 53.4953 61.6593 53.4953H59.6107V67.2845Z" fill="url(#paint7_linear_452_5)"/>
<path d="M71.7986 80.7423V18.2092H68.0334V16H78V18.2092H74.2533V80.7423H71.7986Z" fill="url(#paint8_linear_452_5)"/>
<defs>
<linearGradient id="paint0_linear_452_5" x1="41.5" y1="16" x2="41.5" y2="50" gradientUnits="userSpaceOnUse">
<stop stop-color="#7E47B5"/>
<stop offset="1" stop-color="#7E47B5" stop-opacity="0"/>
</linearGradient>
<linearGradient id="paint1_linear_452_5" x1="41.5" y1="16" x2="41.5" y2="50" gradientUnits="userSpaceOnUse">
<stop stop-color="#7E47B5"/>
<stop offset="1" stop-color="#7E47B5" stop-opacity="0"/>
</linearGradient>
<linearGradient id="paint2_linear_452_5" x1="41.5" y1="16" x2="41.5" y2="50" gradientUnits="userSpaceOnUse">
<stop stop-color="#7E47B5"/>
<stop offset="1" stop-color="#7E47B5" stop-opacity="0"/>
</linearGradient>
<linearGradient id="paint3_linear_452_5" x1="41.5" y1="16" x2="41.5" y2="50" gradientUnits="userSpaceOnUse">
<stop stop-color="#7E47B5"/>
<stop offset="1" stop-color="#7E47B5" stop-opacity="0"/>
</linearGradient>
<linearGradient id="paint4_linear_452_5" x1="24.6903" y1="42.081" x2="80.0403" y2="26.6671" gradientUnits="userSpaceOnUse">
<stop stop-color="#7E47B5"/>
<stop offset="0.533248" stop-color="#7E47B5" stop-opacity="0.499864"/>
<stop offset="1" stop-color="#5A3B79" stop-opacity="0"/>
</linearGradient>
<linearGradient id="paint5_linear_452_5" x1="24.6903" y1="42.081" x2="80.0403" y2="26.6671" gradientUnits="userSpaceOnUse">
<stop stop-color="#7E47B5"/>
<stop offset="0.533248" stop-color="#7E47B5" stop-opacity="0.499864"/>
<stop offset="1" stop-color="#5A3B79" stop-opacity="0"/>
</linearGradient>
<linearGradient id="paint6_linear_452_5" x1="24.6903" y1="42.081" x2="80.0403" y2="26.6671" gradientUnits="userSpaceOnUse">
<stop stop-color="#7E47B5"/>
<stop offset="0.533248" stop-color="#7E47B5" stop-opacity="0.499864"/>
<stop offset="1" stop-color="#5A3B79" stop-opacity="0"/>
</linearGradient>
<linearGradient id="paint7_linear_452_5" x1="24.6903" y1="42.081" x2="80.0403" y2="26.6671" gradientUnits="userSpaceOnUse">
<stop stop-color="#7E47B5"/>
<stop offset="0.533248" stop-color="#7E47B5" stop-opacity="0.499864"/>
<stop offset="1" stop-color="#5A3B79" stop-opacity="0"/>
</linearGradient>
<linearGradient id="paint8_linear_452_5" x1="24.6903" y1="42.081" x2="80.0403" y2="26.6671" gradientUnits="userSpaceOnUse">
<stop stop-color="#7E47B5"/>
<stop offset="0.533248" stop-color="#7E47B5" stop-opacity="0.499864"/>
<stop offset="1" stop-color="#5A3B79" stop-opacity="0"/>
</linearGradient>
</defs>
</svg>
